<?xml version="1.0" encoding="utf-8" ?>
<!-- Generator: Adobe Illustrator 24.0.2, SVG Export Plug-In . SVG Version: 6.00 Build 0)  -->
<svg
  version="1.1"
  xmlns="http://www.w3.org/2000/svg"
  xmlns:xlink="http://www.w3.org/1999/xlink"
  x="0px"
  y="0px"
  viewBox="0 0 24 24"
  style="enable-background:new 0 0 24 24;"
  xml:space="preserve"
>
<style type="text/css">
	.st0{fill:none;}
	.st1{fill:#121331;}
</style>
<g id="bounding_area">
	<rect class="st0" width="24" height="24" />
</g>
<g id="design">
	<g>
		<path
        class="st1"
        d="M10.25,17h-4.5C5.34,17,5,16.66,5,16.25s0.34-0.75,0.75-0.75h4.5c0.41,0,0.75,0.34,0.75,0.75
			S10.66,17,10.25,17z"
      />
		<path
        class="st1"
        d="M20.25,4H3.75C2.79,4,2,4.79,2,5.75v12.5C2,19.21,2.79,20,3.75,20h16.5c0.97,0,1.75-0.79,1.75-1.75V5.75
			C22,4.79,21.22,4,20.25,4z M3.5,5.75c0-0.14,0.11-0.25,0.25-0.25h16.5c0.14,0,0.25,0.11,0.25,0.25V8h-17V5.75z M3.5,9.5h17v2h-17
			V9.5z M20.5,18.25c0,0.14-0.11,0.25-0.25,0.25H3.75c-0.14,0-0.25-0.11-0.25-0.25V13h17V18.25z"
      />
	</g>
</g>
</svg>
